<svg xmlns="http://www.w3.org/2000/svg" overflow="hidden" viewBox="0 0 326 58">
  <defs/>
  <defs>
    <linearGradient id="b" x1="547.4" x2="547.4" y1="466.1" y2="491.7" gradientUnits="userSpaceOnUse" spreadMethod="reflect">
      <stop offset="0" stop-color="#FFF"/>
      <stop offset="1" stop-color="#FFF"/>
    </linearGradient>
    <linearGradient id="c" x1="732.2" x2="732.2" y1="466.1" y2="491.7" gradientUnits="userSpaceOnUse" spreadMethod="reflect">
      <stop offset="0" stop-color="#FFF"/>
      <stop offset="1" stop-color="#FFF"/>
    </linearGradient>
    <clipPath id="a">
      <path fill-rule="evenodd" d="M477 454h326v58H477z" clip-rule="evenodd"/>
    </clipPath>
  </defs>
  <g clip-path="url(#a)" transform="translate(-477 -454)">
    <path fill="#D73B01" d="M477 462h141v34H477z"/>
    <path fill="url(#b)" fill-rule="evenodd" d="M556.2 477.8c-.8 0-1.4.3-2 .8-.5.6-.9 1.3-1 2.3h5.7c0-1-.3-1.8-.7-2.3-.5-.6-1.1-.8-2-.8zm-17.1 0a3 3 0 00-2.4 1c-.6.7-.9 1.5-.9 2.6v1.4c0 .9.3 1.6.9 2.2.5.6 1.2 1 2.1 1 1 0 1.8-.4 2.4-1.2.6-.8.9-1.9.9-3.3 0-1.1-.3-2-.8-2.7-.6-.7-1.3-1-2.2-1zm8-1.2h1.7v10c0 1.8-.3 3.1-1 4-.7 1-1.7 1.5-3 1.5-.5 0-1-.2-1.4-.4v-1.5c.5.3 1 .4 1.4.4 1.6 0 2.3-1.2 2.3-3.7zm20.8-.2c.9 0 1.7.1 2.4.5v1.7c-.8-.5-1.6-.8-2.5-.8-1 0-2 .4-2.6 1.1-.7.8-1 1.8-1 3 0 1.3.3 2.3 1 3 .6.7 1.4 1 2.5 1 1 0 1.8-.3 2.6-.9v1.6c-.8.5-1.8.8-2.9.8-1.5 0-2.7-.5-3.6-1.5-1-1-1.4-2.2-1.4-3.8 0-1.7.5-3.1 1.5-4.2 1-1 2.3-1.5 4-1.5zm-11.6 0a4 4 0 013.2 1.3c.7.9 1 2.1 1 3.7v.9h-7.3c0 1.1.3 2 1 2.7.5.6 1.3 1 2.4 1 1.2 0 2.3-.4 3.3-1.2v1.6a6 6 0 01-3.7 1c-1.5 0-2.7-.5-3.5-1.5-.9-1-1.3-2.3-1.3-4 0-1.6.5-3 1.4-4 1-1 2-1.5 3.5-1.5zm-31.9-2.7c-1.5 0-2.8.6-3.7 1.7a6.5 6.5 0 00-1.5 4.4c0 1.8.5 3.2 1.4 4.4 1 1 2.2 1.6 3.7 1.6 1.6 0 2.9-.5 3.8-1.6 1-1 1.4-2.5 1.4-4.4 0-2-.4-3.4-1.4-4.5-.9-1-2.1-1.6-3.7-1.6zm51-.2v3.1h2.6v1.4h-2.6v6c0 .7 0 1.2.3 1.5.3.3.7.4 1.2.4.4 0 .8-.1 1.1-.3v1.4c-.4.2-1 .3-1.6.3-1.8 0-2.7-1-2.7-3V478h-1.8v-1.4h1.8V474zm-50.9-1.3c2 0 3.7.6 5 2a7.7 7.7 0 011.8 5.4c0 2.4-.6 4.3-1.9 5.7-1.3 1.4-3 2-5.1 2-2 0-3.8-.6-5-2a7.6 7.6 0 01-1.9-5.4c0-2.3.6-4.2 2-5.6 1.2-1.4 3-2.1 5.1-2.1zm23.5-.4a1 1 0 011.1 1c0 .4-.1.6-.3.8a1 1 0 01-.8.3 1 1 0 01-1-1c0-.4 0-.6.2-.8.2-.2.5-.3.8-.3zm-13.9-.2h1.7v6.9a4 4 0 013.7-2.1c1.3 0 2.4.4 3.2 1.4.7 1 1.1 2.2 1.1 3.8 0 1.7-.4 3.1-1.3 4.2-.8 1-2 1.6-3.5 1.6-1.4 0-2.4-.6-3.1-1.8v1.5H534z"/>
    <text x="517.4" y="489.5" fill-opacity="0" font-family="Arial,Arial_MSFontService,sans-serif" font-size="20.5">
      Object
    </text>
    <path fill="#107C10" d="M662 462h140v34H662z"/>
    <path fill="url(#c)" fill-rule="evenodd" d="M759.1 477.8c-.8 0-1.4.3-2 .8-.6.6-.9 1.3-1 2.3h5.6c0-1-.2-1.8-.7-2.3-.4-.6-1-.8-1.9-.8zm-11.1 0a3 3 0 00-2.4 1c-.6.7-.9 1.5-.9 2.6v1.4c0 .9.3 1.6.9 2.2.5.6 1.2 1 2.1 1 1 0 1.8-.4 2.4-1.2.6-.8.9-1.9.9-3.3 0-1.1-.3-2-.8-2.7-.6-.7-1.3-1-2.2-1zm-30.9 0c-.8 0-1.4.3-2 .8-.6.6-.9 1.3-1 2.3h5.6c0-1-.2-1.8-.7-2.3-.4-.6-1-.8-1.9-.8zm53.4-1.4c.4 0 .8 0 1 .2v1.7a2 2 0 00-1.3-.3c-.7 0-1.3.3-1.8 1s-.7 1.6-.7 2.8v5.3H766v-10.5h1.7v2.2c.3-.8.7-1.3 1.1-1.8.5-.4 1-.6 1.7-.6zm-11.4 0a4 4 0 013.2 1.3c.8.9 1.2 2.1 1.2 3.7v.9H756c0 1.1.3 2 .9 2.7.6.6 1.4 1 2.5 1 1.2 0 2.2-.4 3.2-1.2v1.6a6 6 0 01-3.6 1c-1.5 0-2.7-.5-3.5-1.5-.9-1-1.3-2.3-1.3-4 0-1.6.5-3 1.4-4 1-1 2-1.5 3.4-1.5zm-30 0a3 3 0 012.9 2.1c.8-1.4 2-2.1 3.5-2.1 2.3 0 3.4 1.4 3.4 4.2v6.5h-1.6v-6c0-1.2-.2-2-.6-2.5-.3-.6-1-.8-1.8-.8-.7 0-1.3.3-1.8 1-.5.6-.8 1.4-.8 2.3v6h-1.7V481c0-2-.8-3.1-2.3-3.1-.8 0-1.4.3-1.9 1-.5.5-.7 1.3-.7 2.3v6H724v-10.5h1.7v1.7c.8-1.3 1.9-2 3.3-2zm-12 0a4 4 0 013.2 1.3c.8.9 1.2 2.1 1.2 3.7v.9H714c0 1.1.3 2 .9 2.7.6.6 1.4 1 2.5 1 1.2 0 2.2-.4 3.2-1.2v1.6a6 6 0 01-3.6 1c-1.5 0-2.7-.5-3.5-1.5-.9-1-1.3-2.3-1.3-4 0-1.6.5-3 1.4-4 1-1 2-1.5 3.4-1.5zm-22.8-4h2.2l4.5 10.3c.4.7.6 1.3.7 1.7l.8-1.8 4.6-10.2h2.1v14.7h-1.7v-9.9c0-.7 0-1.7.2-2.8l-.5 1.4-5 11.3h-.9l-5-11.2-.4-1.5V487h-1.6zm48.7-.8h1.7v6.9a4 4 0 013.7-2.1c1.3 0 2.4.4 3.1 1.4.8 1 1.2 2.2 1.2 3.8 0 1.7-.4 3.1-1.3 4.2-.9 1-2 1.6-3.5 1.6-1.4 0-2.4-.6-3.2-1.8v1.5H743z"/>
    <text x="694.3" y="485.4" fill-opacity="0" font-family="Arial,Arial_MSFontService,sans-serif" font-size="15.8">
      Member
    </text>
    <text fill="#1C6982" font-family="Segoe UI,Segoe UI_MSFontService,sans-serif" font-size="27" font-weight="700" transform="translate(630.4 489)">
      ?.
    </text>
  </g>
</svg>