<svg xmlns="http://www.w3.org/2000/svg" overflow="hidden" viewBox="0 0 370 58">
  <defs/>
  <defs>
    <linearGradient id="b" x1="533.7" x2="533.7" y1="466.1" y2="491.7" gradientUnits="userSpaceOnUse" spreadMethod="reflect">
      <stop offset="0" stop-color="#FFF"/>
      <stop offset="1" stop-color="#FFF"/>
    </linearGradient>
    <linearGradient id="c" x1="718.5" x2="718.5" y1="466.1" y2="491.7" gradientUnits="userSpaceOnUse" spreadMethod="reflect">
      <stop offset="0" stop-color="#FFF"/>
      <stop offset="1" stop-color="#FFF"/>
    </linearGradient>
    <clipPath id="a">
      <path fill-rule="evenodd" d="M463 454h370v58H463z" clip-rule="evenodd"/>
    </clipPath>
  </defs>
  <g clip-path="url(#a)" transform="translate(-463 -454)">
    <path fill="#D73B01" d="M464 462h140v34H464z"/>
    <path fill="url(#b)" fill-rule="evenodd" d="M542.5 477.8c-.8 0-1.4.3-2 .8-.6.6-.9 1.3-1 2.3h5.6c0-1-.2-1.8-.7-2.3-.4-.6-1-.8-1.9-.8zm-17.1 0a3 3 0 00-2.4 1c-.6.7-.9 1.5-.9 2.6v1.4c0 .9.3 1.6.9 2.2.5.6 1.2 1 2.1 1 1 0 1.8-.4 2.4-1.2.6-.8.9-1.9.9-3.3 0-1.1-.3-2-.8-2.7-.6-.7-1.3-1-2.2-1zm8-1.2h1.7v10c0 1.8-.3 3.1-1 4-.7 1-1.7 1.5-3 1.5-.5 0-1-.2-1.4-.4v-1.5c.5.3 1 .4 1.4.4 1.6 0 2.3-1.2 2.3-3.7zm20.8-.2c.9 0 1.7.1 2.4.5v1.7c-.8-.5-1.6-.8-2.5-.8-1 0-2 .4-2.6 1.1-.7.8-1 1.8-1 3 0 1.3.3 2.3.9 3 .6.7 1.5 1 2.6 1 1 0 1.8-.3 2.6-.9v1.6c-.8.5-1.8.8-2.9.8-1.5 0-2.7-.5-3.6-1.5-1-1-1.4-2.2-1.4-3.8 0-1.7.5-3.1 1.5-4.2 1-1 2.3-1.5 4-1.5zm-11.6 0a4 4 0 013.1 1.3c.8.9 1.2 2.1 1.2 3.7v.9h-7.4c0 1.1.3 2 .9 2.7.6.6 1.4 1 2.5 1 1.2 0 2.2-.4 3.2-1.2v1.6a6 6 0 01-3.6 1c-1.5 0-2.7-.5-3.5-1.5-.9-1-1.3-2.3-1.3-4 0-1.6.5-3 1.4-4 1-1 2-1.5 3.5-1.5zm-31.9-2.7c-1.5 0-2.8.6-3.8 1.7a6.5 6.5 0 00-1.4 4.4c0 1.8.5 3.2 1.4 4.4 1 1 2.2 1.6 3.7 1.6 1.6 0 2.9-.5 3.8-1.6 1-1 1.4-2.5 1.4-4.4 0-2-.5-3.4-1.4-4.5-.9-1-2.1-1.6-3.7-1.6zm51-.2v3.1h2.6v1.4h-2.6v6c0 .7 0 1.2.3 1.5.3.3.6.4 1.2.4.4 0 .8-.1 1.1-.3v1.4c-.4.2-1 .3-1.6.3-1.8 0-2.7-1-2.7-3V478h-1.8v-1.4h1.8V474zm-50.9-1.3c2 0 3.7.6 5 2a7.7 7.7 0 011.8 5.4c0 2.4-.6 4.3-2 5.7-1.2 1.4-2.9 2-5 2s-3.8-.6-5-2a7.6 7.6 0 01-2-5.4c0-2.3.7-4.2 2-5.6 1.3-1.4 3-2.1 5.2-2.1zm23.5-.4a1 1 0 011.1 1c0 .4-.1.6-.3.8a1 1 0 01-.8.3 1 1 0 01-1.1-1c0-.4.1-.6.3-.8.2-.2.5-.3.8-.3zm-13.9-.2h1.7v6.9a4 4 0 013.7-2.1c1.3 0 2.4.4 3.1 1.4.8 1 1.2 2.2 1.2 3.8 0 1.7-.4 3.1-1.3 4.2-.8 1-2 1.6-3.5 1.6-1.4 0-2.4-.6-3.1-1.8v1.5h-1.8z"/>
    <text x="503.7" y="489.5" fill-opacity="0" font-family="Arial,Arial_MSFontService,sans-serif" font-size="20.5">
      Object
    </text>
    <path fill="#107C10" d="M648 462h141v34H648z"/>
    <path fill="url(#c)" fill-rule="evenodd" d="M728.7 477.8c-.8 0-1.4.3-2 .8-.5.6-.9 1.3-1 2.3h5.7c0-1-.3-1.8-.7-2.3-.5-.6-1.1-.8-2-.8zm-11.7 0c-1 0-1.9.4-2.5 1.1a5 5 0 00-.8 3.1c0 1.2.2 2.2.8 2.9.6.7 1.3 1 2.3 1 1 0 1.7-.3 2.3-1 .5-.7.8-1.5.8-2.5v-1.6a3 3 0 00-.8-2.1c-.6-.6-1.3-1-2.1-1zm17.4-1.2h2l2 3.6.4.8 2.7-4.4h1.8l-3.5 5.3 3.5 5.2h-2l-2-3.4-.5-.8-.5.8-2.2 3.4h-1.9l3.6-5.1zm-5.6-.2a4 4 0 013.2 1.3c.7.9 1 2.1 1 3.7v.9h-7.3c0 1.1.3 2 1 2.7.5.6 1.3 1 2.4 1 1.2 0 2.3-.4 3.3-1.2v1.6c-1 .6-2.2 1-3.7 1s-2.7-.5-3.5-1.5c-.8-1-1.3-2.3-1.3-4 0-1.6.5-3 1.4-4 1-1 2.1-1.5 3.5-1.5zm-23 0c1.2 0 2 .3 2.7 1a5 5 0 01.9 3.3v6.4h-1.7v-6c0-2.2-.8-3.3-2.5-3.3-.8 0-1.5.3-2 1-.6.6-.9 1.4-.9 2.3v6h-1.7v-10.5h1.7v1.8c.9-1.4 2-2 3.5-2zm-11-4h1.8v14.7h-1.7zm25.1-.8h1.7V487H720v-1.8c-.8 1.4-2 2-3.6 2a4 4 0 01-3.2-1.4c-.8-.9-1.2-2.2-1.2-3.8 0-1.7.5-3.1 1.3-4.2 1-1 2-1.5 3.5-1.5s2.5.5 3.2 1.7z"/>
    <text x="694.9" y="485.4" fill-opacity="0" font-family="Arial,Arial_MSFontService,sans-serif" font-size="15.8">
      Index
    </text>
    <text fill="#1C6982" font-family="Segoe UI,Segoe UI_MSFontService,sans-serif" font-size="27" font-weight="700" transform="translate(615.4 489)">
      ?[<tspan x="190.6" y="0">]</tspan>
    </text>
  </g>
</svg>