<svg xmlns="http://www.w3.org/2000/svg" overflow="hidden" viewBox="0 0 579 46">
  <defs/>
  <defs>
    <linearGradient id="b" x1="618.5" x2="618.5" y1="506" y2="531.6" gradientUnits="userSpaceOnUse" spreadMethod="reflect">
      <stop offset="0" stop-color="#FFF"/>
      <stop offset="1" stop-color="#FFF"/>
    </linearGradient>
    <linearGradient id="c" x1="439.6" x2="439.6" y1="506" y2="531.6" gradientUnits="userSpaceOnUse" spreadMethod="reflect">
      <stop offset="0" stop-color="#FFF"/>
      <stop offset="1" stop-color="#FFF"/>
    </linearGradient>
    <clipPath id="a">
      <path fill-rule="evenodd" d="M350 496h579v46H350z" clip-rule="evenodd"/>
    </clipPath>
  </defs>
  <g clip-path="url(#a)" transform="translate(-350 -496)">
    <path fill="#D73B01" d="M548 502h141v34H548z"/>
    <path fill="url(#b)" fill-rule="evenodd" d="M618.3 514l-.3 1-2.3 6.3h5.1l-2.3-6.3a6 6 0 01-.2-1zm-.9-1.7h1.8L625 527h-2l-1.5-4.1h-6.2l-1.5 4h-2z"/>
    <text x="611.8" y="525.1" fill-opacity="0" font-family="Arial,Arial_MSFontService,sans-serif" font-size="14.7">
      A
    </text>
    <path fill="none" stroke="#1C6982" stroke-linejoin="round" stroke-miterlimit="10" stroke-width="3" d="M359.5 540.5c-2 0-3.5-1.6-3.5-3.5v-14c0-2-1.6-3.5-3.5-3.5 2 0 3.5-1.6 3.5-3.5v-14c0-2 1.6-3.5 3.5-3.5m340 0c2 0 3.5 1.6 3.5 3.5v14c0 2 1.6 3.5 3.5 3.5-2 0-3.5 1.6-3.5 3.5v14c0 2-1.6 3.5-3.5 3.5"/>
    <path fill="#094B7D" d="M369 502h141v34H369z"/>
    <path fill="url(#c)" fill-rule="evenodd" d="M435.2 528.8h8.7v1.2h-8.7z"/>
    <text x="435.2" y="529.9" fill-opacity="0" font-family="Arial,Arial_MSFontService,sans-serif" font-size="1.2">
      _
    </text>
    <path fill="#1C6982" fill-rule="evenodd" d="M739.5 510.6h36v6.3h-36zm0 9.5h36v6.3h-36zM820 529c0-6 5.1-11 11.5-11s11.5 5 11.5 11-5.1 11-11.5 11-11.5-5-11.5-11zM905 529c0-6 5.1-11 11.5-11s11.5 5 11.5 11-5.1 11-11.5 11-11.5-5-11.5-11zM862 529c0-6 5.4-11 12-11s12 5 12 11-5.4 11-12 11-12-5-12-11z"/>
  </g>
</svg>