<svg xmlns="http://www.w3.org/2000/svg" overflow="hidden" viewBox="0 0 376 66">
  <defs/>
  <defs>
    <linearGradient id="b" x1="523.1" x2="523.1" y1="491.6" y2="517.2" gradientUnits="userSpaceOnUse" spreadMethod="reflect">
      <stop offset="0" stop-color="#FFF"/>
      <stop offset="1" stop-color="#FFF"/>
    </linearGradient>
    <linearGradient id="c" x1="756.9" x2="756.9" y1="491.6" y2="517.2" gradientUnits="userSpaceOnUse" spreadMethod="reflect">
      <stop offset="0" stop-color="#FFF"/>
      <stop offset="1" stop-color="#FFF"/>
    </linearGradient>
    <clipPath id="a">
      <path fill-rule="evenodd" d="M452 471h376v66H452z" clip-rule="evenodd"/>
    </clipPath>
  </defs>
  <g clip-path="url(#a)" transform="translate(-452 -471)">
    <text fill="#1C6982" font-family="Segoe UI,Segoe UI_MSFontService,sans-serif" font-size="27" font-weight="700" transform="translate(628.3 514)">
      ??
    </text>
    <path fill="#D73B01" d="M453 488h140v33H453z"/>
    <path fill="url(#b)" fill-rule="evenodd" d="M514.3 503.2c-1 0-2 .4-2.6 1.1-.6.8-1 1.8-1 3 0 1.3.4 2.3 1 3 .7.7 1.5 1 2.6 1 1 0 2-.3 2.5-1 .6-.7.9-1.7.9-3s-.3-2.3-.9-3a3 3 0 00-2.5-1zm37.3-1.1h1.6v6c0 2.2.9 3.3 2.6 3.3.8 0 1.5-.3 2-1 .5-.5.8-1.3.8-2.3v-6h1.7v10.5h-1.7v-1.7c-.7 1.3-1.8 2-3.3 2-2.5 0-3.7-1.6-3.7-4.6zm-37.2-.3c1.6 0 2.8.5 3.7 1.5.9 1 1.3 2.3 1.3 4 0 1.6-.5 3-1.4 4a5 5 0 01-3.8 1.5c-1.6 0-2.8-.5-3.7-1.5-1-1-1.4-2.2-1.4-3.9 0-1.7.4-3.1 1.4-4.1 1-1 2.3-1.5 4-1.5zM525 499v3h2.7v1.5H525v6c0 .6.1 1.1.4 1.4.2.3.6.5 1.2.5.4 0 .7-.1 1-.4v1.5c-.3.2-.9.3-1.5.3-1.9 0-2.8-1-2.8-3v-6.3h-1.8v-1.4h1.8v-2.6zm11-1.1h2.2l7.4 11.5.6 1v-12.5h1.7v14.7h-2.1l-7.6-11.8-.5-.9v12.7H536zm-42 0h2.2l7.4 11.5.6 1v-12.5h1.7v14.7h-2.1l-7.6-11.8-.5-.9v12.7H494zm-18 0h1.7v14.7H476zm92.8-.9h1.7v15.6h-1.7zm-5 0h1.7v15.6h-1.7zm-78-.2c.5 0 .9 0 1.2.2v1.5c-.4-.2-.7-.3-1.1-.3-1.2 0-1.8.8-1.8 2.2v1.7h2.5v1.4H484v9h-1.7v-9h-1.8v-1.4h1.8v-1.7c0-1.1.3-2 1-2.6.6-.7 1.4-1 2.4-1z"/>
    <text x="476" y="510.8" fill-opacity="0" font-family="Arial,Arial_MSFontService,sans-serif" font-size="16">
      If Not Null
    </text>
    <path fill="#107C10" d="M687 488h140v33H687z"/>
    <path fill="url(#c)" fill-rule="evenodd" d="M764.1 502h1.7v6c0 2.3.9 3.4 2.6 3.4.8 0 1.5-.3 2-1 .5-.5.8-1.3.8-2.3v-6h1.7v10.5h-1.7v-1.7c-.8 1.3-1.8 2-3.3 2-2.5 0-3.8-1.6-3.8-4.6zm-15.5-4.1h2.2l7.4 11.5.6 1v-12.5h1.6v14.7h-2l-7.6-11.8a5 5 0 01-.5-.9v12.7h-1.7zm-18 0h1.7v14.7h-1.7zm50.8-.9h1.6v15.6h-1.6zm-5 0h1.6v15.6h-1.6zm-36-.2c.4 0 .9 0 1.2.2v1.5c-.4-.2-.7-.3-1.2-.3-1.1 0-1.7.8-1.7 2.2v1.7h2.4v1.4h-2.4v9H737v-9h-1.8v-1.4h1.8v-1.7c0-1.1.3-2 1-2.6.6-.7 1.4-1 2.3-1z"/>
    <text x="730.6" y="510.8" fill-opacity="0" font-family="Arial,Arial_MSFontService,sans-serif" font-size="16">
      If Null
    </text>
  </g>
</svg>