<svg width="376" height="66" xmlns="http://www.w3.org/2000/svg" xmlns:xlink="http://www.w3.org/1999/xlink" overflow="hidden"><defs><clipPath id="clip0"><path d="M452 471 828 471 828 537 452 537Z" fill-rule="evenodd" clip-rule="evenodd"/></clipPath><linearGradient x1="523.084" y1="491.563" x2="523.084" y2="517.163" gradientUnits="userSpaceOnUse" spreadMethod="reflect" id="fill1"><stop offset="0" stop-color="#FFFFFF"/><stop offset="1" stop-color="#FFFFFF"/></linearGradient><linearGradient x1="756.916" y1="491.563" x2="756.916" y2="517.163" gradientUnits="userSpaceOnUse" spreadMethod="reflect" id="fill2"><stop offset="0" stop-color="#FFFFFF"/><stop offset="1" stop-color="#FFFFFF"/></linearGradient></defs><g clip-path="url(#clip0)" transform="translate(-452 -471)"><text fill="#1C6982" font-family="Segoe UI,Segoe UI_MSFontService,sans-serif" font-weight="700" font-size="27" transform="translate(628.333 514)">??</text><rect x="453" y="488" width="140" height="33" fill="#D73B01"/><path d="M514.298 503.232C513.218 503.232 512.363 503.6 511.734 504.335 511.106 505.069 510.791 506.083 510.791 507.375 510.791 508.619 511.109 509.6 511.745 510.318 512.38 511.035 513.232 511.394 514.298 511.394 515.385 511.394 516.221 511.042 516.805 510.338 517.39 509.634 517.682 508.633 517.682 507.334 517.682 506.021 517.39 505.01 516.805 504.299 516.221 503.588 515.385 503.232 514.298 503.232ZM551.561 502.063 553.232 502.063 553.232 508.072C553.232 510.287 554.08 511.394 555.775 511.394 556.595 511.394 557.27 511.092 557.8 510.487 558.33 509.882 558.595 509.091 558.595 508.113L558.595 502.063 560.276 502.063 560.276 512.563 558.595 512.563 558.595 510.902 558.554 510.902C557.857 512.174 556.776 512.809 555.314 512.809 552.812 512.809 551.561 511.319 551.561 508.339ZM514.421 501.817C515.986 501.817 517.208 502.299 518.087 503.263 518.965 504.227 519.404 505.563 519.404 507.272 519.404 508.947 518.931 510.289 517.984 511.297 517.037 512.305 515.768 512.809 514.175 512.809 512.623 512.809 511.384 512.319 510.458 511.338 509.532 510.357 509.068 509.056 509.068 507.436 509.068 505.673 509.55 504.295 510.514 503.304 511.478 502.313 512.78 501.817 514.421 501.817ZM525.011 498.956 525.011 502.063 527.657 502.063 527.657 503.499 525.011 503.499 525.011 509.415C525.011 510.119 525.131 510.622 525.37 510.923 525.609 511.223 526.006 511.374 526.56 511.374 526.984 511.374 527.349 511.258 527.657 511.025L527.657 512.461C527.26 512.68 526.737 512.789 526.088 512.789 524.249 512.789 523.33 511.763 523.33 509.713L523.33 503.499 521.525 503.499 521.525 502.063 523.33 502.063 523.33 499.5ZM536.012 497.859 538.247 497.859 545.609 509.395C545.917 509.873 546.115 510.201 546.204 510.379L546.245 510.379C546.177 509.955 546.143 509.234 546.143 508.216L546.143 497.859 547.865 497.859 547.865 512.563 545.753 512.563 538.186 500.843C537.994 500.549 537.837 500.242 537.714 499.92L537.652 499.92C537.707 500.235 537.734 500.908 537.734 501.94L537.734 512.563 536.012 512.563ZM494.012 497.859 496.247 497.859 503.609 509.395C503.917 509.873 504.115 510.201 504.204 510.379L504.245 510.379C504.177 509.955 504.143 509.234 504.143 508.216L504.143 497.859 505.865 497.859 505.865 512.563 503.753 512.563 496.186 500.843C495.994 500.549 495.837 500.242 495.714 499.92L495.652 499.92C495.707 500.235 495.734 500.908 495.734 501.94L495.734 512.563 494.012 512.563ZM476.012 497.859 477.734 497.859 477.734 512.563 476.012 512.563ZM568.786 497.018 570.468 497.018 570.468 512.563 568.786 512.563ZM563.786 497.018 565.468 497.018 565.468 512.563 563.786 512.563ZM485.754 496.793C486.267 496.793 486.674 496.854 486.975 496.977L486.975 498.495C486.647 498.31 486.274 498.218 485.857 498.218 484.681 498.218 484.093 498.96 484.093 500.443L484.093 502.063 486.554 502.063 486.554 503.499 484.093 503.499 484.093 512.563 482.422 512.563 482.422 503.499 480.628 503.499 480.628 502.063 482.422 502.063 482.422 500.361C482.422 499.261 482.74 498.391 483.376 497.752 484.011 497.112 484.804 496.793 485.754 496.793Z" fill="url(#fill1)" fill-rule="evenodd"/><text fill="#000000" fill-opacity="0" font-family="Arial,Arial_MSFontService,sans-serif" font-size="16.0166" x="476.012" y="510.807">If Not Null</text><rect x="687" y="488" width="140" height="33" fill="#107C10"/><path d="M764.142 502.063 765.814 502.063 765.814 508.072C765.814 510.287 766.661 511.394 768.357 511.394 769.177 511.394 769.852 511.092 770.382 510.487 770.912 509.882 771.177 509.091 771.177 508.113L771.177 502.063 772.858 502.063 772.858 512.563 771.177 512.563 771.177 510.902 771.136 510.902C770.438 512.174 769.358 512.809 767.895 512.809 765.393 512.809 764.142 511.319 764.142 508.339ZM748.594 497.859 750.829 497.859 758.191 509.395C758.499 509.873 758.697 510.201 758.786 510.379L758.827 510.379C758.759 509.955 758.724 509.234 758.724 508.216L758.724 497.859 760.447 497.859 760.447 512.563 758.335 512.563 750.767 500.843C750.576 500.549 750.419 500.241 750.296 499.92L750.234 499.92C750.289 500.235 750.316 500.908 750.316 501.94L750.316 512.563 748.594 512.563ZM730.594 497.859 732.316 497.859 732.316 512.563 730.594 512.563ZM781.368 497.018 783.05 497.018 783.05 512.563 781.368 512.563ZM776.368 497.018 778.05 497.018 778.05 512.563 776.368 512.563ZM740.336 496.793C740.849 496.793 741.256 496.854 741.556 496.977L741.556 498.495C741.228 498.31 740.856 498.218 740.439 498.218 739.263 498.218 738.675 498.96 738.675 500.443L738.675 502.063 741.136 502.063 741.136 503.499 738.675 503.499 738.675 512.563 737.004 512.563 737.004 503.499 735.209 503.499 735.209 502.063 737.004 502.063 737.004 500.361C737.004 499.26 737.322 498.391 737.957 497.751 738.593 497.112 739.386 496.793 740.336 496.793Z" fill="url(#fill2)" fill-rule="evenodd"/><text fill="#000000" fill-opacity="0" font-family="Arial,Arial_MSFontService,sans-serif" font-size="16.0166" x="730.594" y="510.807">If Null</text></g></svg>