<svg width="610" height="67" xmlns="http://www.w3.org/2000/svg" xmlns:xlink="http://www.w3.org/1999/xlink" overflow="hidden"><defs><clipPath id="clip0"><path d="M335 470 945 470 945 537 335 537Z" fill-rule="evenodd" clip-rule="evenodd"/></clipPath><linearGradient x1="405.928" y1="491.564" x2="405.928" y2="517.164" gradientUnits="userSpaceOnUse" spreadMethod="reflect" id="fill1"><stop offset="0" stop-color="#FFFFFF"/><stop offset="1" stop-color="#FFFFFF"/></linearGradient><linearGradient x1="639.76" y1="491.564" x2="639.76" y2="517.164" gradientUnits="userSpaceOnUse" spreadMethod="reflect" id="fill2"><stop offset="0" stop-color="#FFFFFF"/><stop offset="1" stop-color="#FFFFFF"/></linearGradient><linearGradient x1="874.072" y1="491.564" x2="874.072" y2="517.164" gradientUnits="userSpaceOnUse" spreadMethod="reflect" id="fill3"><stop offset="0" stop-color="#FFFFFF"/><stop offset="1" stop-color="#FFFFFF"/></linearGradient></defs><g clip-path="url(#clip0)" transform="translate(-335 -470)"><text fill="#1C6982" font-family="Segoe UI,Segoe UI_MSFontService,sans-serif" font-weight="700" font-size="27" transform="translate(517.011 514)">?</text><rect x="336" y="488" width="140" height="33" fill="#D73B01"/><path d="M437.532 503.233C436.452 503.233 435.598 503.6 434.969 504.335 434.34 505.07 434.025 506.083 434.025 507.375 434.025 508.619 434.343 509.6 434.979 510.318 435.615 511.036 436.466 511.395 437.532 511.395 438.619 511.395 439.455 511.043 440.039 510.339 440.624 509.635 440.916 508.633 440.916 507.334 440.916 506.022 440.624 505.01 440.039 504.299 439.455 503.588 438.619 503.233 437.532 503.233ZM402.112 503.233C401.319 503.233 400.645 503.516 400.092 504.084 399.538 504.651 399.196 505.393 399.066 506.309L404.737 506.309C404.73 505.338 404.496 504.583 404.034 504.043 403.573 503.503 402.932 503.233 402.112 503.233ZM383.953 503.233C382.975 503.233 382.189 503.573 381.594 504.253 380.999 504.933 380.702 505.786 380.702 506.811L380.702 508.278C380.702 509.146 380.984 509.882 381.548 510.487 382.112 511.092 382.828 511.395 383.696 511.395 384.715 511.395 385.513 511.005 386.09 510.226 386.668 509.447 386.957 508.363 386.957 506.975 386.957 505.806 386.687 504.89 386.147 504.227 385.607 503.564 384.875 503.233 383.953 503.233ZM428.02 502.064 429.702 502.064 429.702 512.564 428.02 512.564ZM367.739 502.064 369.697 502.064 371.727 505.653C371.878 505.919 372.025 506.193 372.168 506.473L372.209 506.473 374.834 502.064 376.69 502.064 373.163 507.375 376.629 512.564 374.67 512.564 372.609 509.159C372.479 508.948 372.326 508.681 372.148 508.36L372.107 508.36C372.073 508.421 371.912 508.688 371.625 509.159L369.523 512.564 367.585 512.564 371.163 507.416ZM395.491 501.879C395.929 501.879 396.264 501.927 396.496 502.023L396.496 503.766C396.202 503.54 395.778 503.427 395.224 503.427 394.507 503.427 393.907 503.766 393.425 504.443 392.943 505.119 392.702 506.042 392.702 507.211L392.702 512.564 391.02 512.564 391.02 502.064 392.702 502.064 392.702 504.227 392.743 504.227C392.982 503.489 393.348 502.913 393.84 502.5 394.332 502.086 394.883 501.879 395.491 501.879ZM450.188 501.818C451.337 501.818 452.215 502.188 452.824 502.93 453.432 503.672 453.736 504.743 453.736 506.145L453.736 512.564 452.055 512.564 452.055 506.575C452.055 504.347 451.241 503.233 449.614 503.233 448.773 503.233 448.078 503.549 447.527 504.181 446.977 504.813 446.702 505.612 446.702 506.575L446.702 512.564 445.02 512.564 445.02 502.064 446.702 502.064 446.702 503.807 446.743 503.807C447.536 502.481 448.684 501.818 450.188 501.818ZM437.655 501.818C439.221 501.818 440.443 502.3 441.321 503.263 442.199 504.227 442.639 505.564 442.639 507.273 442.639 508.948 442.165 510.289 441.218 511.297 440.272 512.306 439.002 512.81 437.409 512.81 435.857 512.81 434.618 512.319 433.692 511.338 432.766 510.357 432.303 509.057 432.303 507.437 432.303 505.673 432.785 504.296 433.748 503.304 434.712 502.313 436.015 501.818 437.655 501.818ZM422.425 501.818C423.334 501.818 424.147 501.975 424.865 502.289L424.865 503.991C424.093 503.486 423.204 503.233 422.199 503.233 421.885 503.233 421.601 503.269 421.348 503.34 421.095 503.412 420.878 503.513 420.697 503.643 420.516 503.773 420.376 503.928 420.276 504.109 420.177 504.291 420.128 504.49 420.128 504.709 420.128 504.983 420.177 505.212 420.276 505.396 420.376 505.581 420.521 505.745 420.712 505.888 420.904 506.032 421.136 506.162 421.41 506.278 421.683 506.394 421.994 506.521 422.343 506.657 422.807 506.835 423.224 507.018 423.594 507.206 423.963 507.394 424.277 507.606 424.537 507.842 424.797 508.078 424.997 508.349 425.137 508.657 425.277 508.965 425.347 509.33 425.347 509.754 425.347 510.274 425.233 510.725 425.004 511.108 424.775 511.49 424.469 511.808 424.086 512.061 423.703 512.314 423.262 512.502 422.763 512.625 422.264 512.748 421.741 512.81 421.194 512.81 420.114 512.81 419.178 512.601 418.385 512.184L418.385 510.38C419.301 511.056 420.309 511.395 421.41 511.395 422.886 511.395 423.624 510.903 423.624 509.918 423.624 509.638 423.561 509.4 423.435 509.206 423.308 509.011 423.137 508.838 422.922 508.688 422.707 508.537 422.454 508.402 422.163 508.283 421.873 508.163 421.56 508.038 421.225 507.908 420.76 507.724 420.352 507.538 420 507.35 419.648 507.162 419.354 506.95 419.118 506.714 418.882 506.478 418.704 506.21 418.585 505.909 418.465 505.608 418.405 505.256 418.405 504.853 418.405 504.361 418.518 503.925 418.744 503.545 418.969 503.166 419.27 502.848 419.646 502.592 420.022 502.335 420.451 502.142 420.933 502.012 421.415 501.883 421.912 501.818 422.425 501.818ZM413.425 501.818C414.334 501.818 415.147 501.975 415.865 502.289L415.865 503.991C415.093 503.486 414.204 503.233 413.199 503.233 412.885 503.233 412.601 503.269 412.348 503.34 412.095 503.412 411.878 503.513 411.697 503.643 411.516 503.773 411.376 503.928 411.276 504.109 411.177 504.291 411.128 504.49 411.128 504.709 411.128 504.983 411.177 505.212 411.276 505.396 411.376 505.581 411.521 505.745 411.712 505.888 411.904 506.032 412.136 506.162 412.41 506.278 412.683 506.394 412.994 506.521 413.343 506.657 413.807 506.835 414.224 507.018 414.594 507.206 414.963 507.394 415.277 507.606 415.537 507.842 415.797 508.078 415.997 508.349 416.137 508.657 416.277 508.965 416.347 509.33 416.347 509.754 416.347 510.274 416.233 510.725 416.004 511.108 415.775 511.49 415.469 511.808 415.086 512.061 414.703 512.314 414.262 512.502 413.763 512.625 413.264 512.748 412.741 512.81 412.194 512.81 411.114 512.81 410.178 512.601 409.385 512.184L409.385 510.38C410.301 511.056 411.309 511.395 412.41 511.395 413.886 511.395 414.624 510.903 414.624 509.918 414.624 509.638 414.561 509.4 414.435 509.206 414.308 509.011 414.137 508.838 413.922 508.688 413.707 508.537 413.454 508.402 413.163 508.283 412.873 508.163 412.56 508.038 412.225 507.908 411.76 507.724 411.352 507.538 411 507.35 410.648 507.162 410.354 506.95 410.118 506.714 409.882 506.478 409.704 506.21 409.585 505.909 409.465 505.608 409.405 505.256 409.405 504.853 409.405 504.361 409.518 503.925 409.744 503.545 409.969 503.166 410.27 502.848 410.646 502.592 411.022 502.335 411.451 502.142 411.933 502.012 412.415 501.883 412.912 501.818 413.425 501.818ZM402.142 501.818C403.516 501.818 404.579 502.262 405.331 503.151 406.083 504.039 406.459 505.273 406.459 506.852L406.459 507.734 399.046 507.734C399.073 508.903 399.388 509.805 399.989 510.441 400.591 511.077 401.418 511.395 402.471 511.395 403.653 511.395 404.74 511.005 405.731 510.226L405.731 511.805C404.808 512.475 403.588 512.81 402.071 512.81 400.587 512.81 399.422 512.333 398.574 511.379 397.726 510.426 397.303 509.084 397.303 507.355 397.303 505.721 397.766 504.39 398.692 503.361 399.618 502.332 400.768 501.818 402.142 501.818ZM384.373 501.818C385.726 501.818 386.783 502.288 387.541 503.228 388.3 504.167 388.68 505.427 388.68 507.006 388.68 508.763 388.252 510.169 387.398 511.226 386.543 512.282 385.374 512.81 383.891 512.81 382.531 512.81 381.481 512.222 380.743 511.046L380.702 511.046 380.702 517.393 379.02 517.393 379.02 502.064 380.702 502.064 380.702 503.909 380.743 503.909C381.57 502.515 382.78 501.818 384.373 501.818ZM358.246 497.86 365.711 497.86 365.711 499.418 359.969 499.418 359.969 504.309 365.28 504.309 365.28 505.858 359.969 505.858 359.969 511.005 366.039 511.005 366.039 512.564 358.246 512.564ZM428.882 497.214C429.189 497.214 429.451 497.318 429.666 497.526 429.881 497.735 429.989 497.996 429.989 498.311 429.989 498.612 429.881 498.868 429.666 499.08 429.451 499.292 429.189 499.398 428.882 499.398 428.581 499.398 428.325 499.295 428.113 499.09 427.901 498.885 427.795 498.625 427.795 498.311 427.795 497.996 427.901 497.735 428.113 497.526 428.325 497.318 428.581 497.214 428.882 497.214Z" fill="url(#fill1)" fill-rule="evenodd"/><text fill="#000000" fill-opacity="0" font-family="Arial,Arial_MSFontService,sans-serif" font-size="20.1797" x="358.246" y="514.871">Expression</text><rect x="570" y="488" width="140" height="33" fill="#107C10"/><path d="M663.48 503.233C662.687 503.233 662.014 503.516 661.46 504.084 660.906 504.651 660.565 505.393 660.435 506.309L666.105 506.309C666.098 505.338 665.864 504.583 665.403 504.043 664.941 503.503 664.3 503.233 663.48 503.233ZM647.163 502.064 648.835 502.064 648.835 508.072C648.835 510.287 649.682 511.395 651.378 511.395 652.198 511.395 652.873 511.092 653.403 510.487 653.932 509.882 654.197 509.091 654.197 508.113L654.197 502.064 655.879 502.064 655.879 512.564 654.197 512.564 654.197 510.902 654.156 510.902C653.459 512.174 652.379 512.81 650.916 512.81 648.414 512.81 647.163 511.319 647.163 508.339ZM643.859 501.879C644.297 501.879 644.632 501.927 644.864 502.023L644.864 503.766C644.57 503.54 644.147 503.427 643.593 503.427 642.875 503.427 642.275 503.766 641.793 504.443 641.311 505.119 641.07 506.042 641.07 507.211L641.07 512.564 639.389 512.564 639.389 502.064 641.07 502.064 641.07 504.227 641.111 504.227C641.351 503.489 641.716 502.913 642.209 502.499 642.701 502.086 643.251 501.879 643.859 501.879ZM663.511 501.818C664.885 501.818 665.948 502.262 666.7 503.151 667.452 504.039 667.828 505.273 667.828 506.852L667.828 507.734 660.414 507.734C660.441 508.903 660.756 509.805 661.357 510.441 661.959 511.077 662.786 511.395 663.839 511.395 665.022 511.395 666.108 511.005 667.1 510.226L667.1 511.805C666.177 512.475 664.957 512.81 663.439 512.81 661.956 512.81 660.79 512.333 659.942 511.379 659.095 510.426 658.671 509.084 658.671 507.355 658.671 505.721 659.134 504.39 660.06 503.361 660.987 502.332 662.137 501.818 663.511 501.818ZM629.107 497.859 639.31 497.859 639.31 499.418 635.065 499.418 635.065 512.564 633.342 512.564 633.342 499.418 629.107 499.418ZM612.614 497.859 614.337 497.859 614.337 512.564 612.614 512.564ZM622.357 496.793C622.87 496.793 623.276 496.855 623.577 496.978L623.577 498.495C623.249 498.311 622.877 498.218 622.46 498.218 621.284 498.218 620.696 498.96 620.696 500.443L620.696 502.064 623.157 502.064 623.157 503.499 620.696 503.499 620.696 512.564 619.024 512.564 619.024 503.499 617.23 503.499 617.23 502.064 619.024 502.064 619.024 500.361C619.024 499.261 619.342 498.391 619.978 497.752 620.614 497.113 621.407 496.793 622.357 496.793Z" fill="url(#fill2)" fill-rule="evenodd"/><text fill="#000000" fill-opacity="0" font-family="Arial,Arial_MSFontService,sans-serif" font-size="16.0166" x="612.614" y="510.808">If True</text><text fill="#1C6982" font-family="Segoe UI,Segoe UI_MSFontService,sans-serif" font-weight="700" font-size="27" transform="translate(753.092 513)">:</text><rect x="804" y="488" width="140" height="33" fill="#7030A0"/><path d="M877.589 507.252 875.056 507.601C874.276 507.71 873.689 507.903 873.292 508.18 872.896 508.457 872.697 508.947 872.697 509.651 872.697 510.164 872.88 510.583 873.246 510.908 873.612 511.232 874.099 511.395 874.707 511.395 875.541 511.395 876.23 511.102 876.773 510.518 877.317 509.933 877.589 509.193 877.589 508.298ZM900.845 503.232C900.052 503.232 899.379 503.516 898.825 504.084 898.272 504.651 897.93 505.393 897.8 506.309L903.47 506.309C903.464 505.338 903.229 504.583 902.768 504.043 902.307 503.502 901.666 503.232 900.845 503.232ZM900.876 501.817C902.25 501.817 903.313 502.262 904.065 503.15 904.817 504.039 905.193 505.273 905.193 506.852L905.193 507.734 897.779 507.734C897.807 508.903 898.121 509.805 898.723 510.441 899.324 511.077 900.151 511.395 901.204 511.395 902.387 511.395 903.474 511.005 904.465 510.226L904.465 511.805C903.542 512.475 902.322 512.81 900.804 512.81 899.321 512.81 898.155 512.333 897.308 511.379 896.46 510.426 896.036 509.084 896.036 507.355 896.036 505.721 896.499 504.389 897.426 503.361 898.352 502.332 899.502 501.817 900.876 501.817ZM891.158 501.817C892.068 501.817 892.881 501.975 893.599 502.289L893.599 503.991C892.826 503.485 891.938 503.232 890.933 503.232 890.618 503.232 890.335 503.268 890.082 503.34 889.829 503.412 889.612 503.513 889.431 503.643 889.249 503.772 889.109 503.928 889.01 504.109 888.911 504.29 888.861 504.49 888.861 504.709 888.861 504.982 888.911 505.211 889.01 505.396 889.109 505.581 889.255 505.745 889.446 505.888 889.637 506.032 889.87 506.162 890.143 506.278 890.417 506.394 890.728 506.521 891.076 506.657 891.541 506.835 891.958 507.018 892.327 507.206 892.696 507.394 893.011 507.606 893.271 507.842 893.53 508.077 893.73 508.349 893.87 508.657 894.011 508.964 894.081 509.33 894.081 509.754 894.081 510.273 893.966 510.725 893.737 511.107 893.508 511.49 893.202 511.808 892.819 512.061 892.437 512.314 891.996 512.502 891.497 512.625 890.998 512.748 890.475 512.81 889.928 512.81 888.848 512.81 887.911 512.601 887.118 512.184L887.118 510.379C888.034 511.056 889.043 511.395 890.143 511.395 891.62 511.395 892.358 510.902 892.358 509.918 892.358 509.638 892.295 509.4 892.168 509.205 892.042 509.011 891.871 508.838 891.656 508.688 891.44 508.537 891.187 508.402 890.897 508.283 890.606 508.163 890.294 508.038 889.959 507.908 889.494 507.724 889.085 507.537 888.733 507.349 888.381 507.161 888.087 506.95 887.851 506.714 887.616 506.478 887.438 506.21 887.318 505.909 887.199 505.608 887.139 505.256 887.139 504.853 887.139 504.36 887.252 503.925 887.477 503.545 887.703 503.166 888.004 502.848 888.38 502.592 888.755 502.335 889.184 502.142 889.666 502.012 890.148 501.882 890.646 501.817 891.158 501.817ZM875.568 501.817C878.036 501.817 879.27 503.123 879.27 505.734L879.27 512.564 877.589 512.564 877.589 510.923 877.547 510.923C876.816 512.181 875.739 512.81 874.318 512.81 873.272 512.81 872.453 512.533 871.862 511.979 871.27 511.425 870.975 510.69 870.975 509.774 870.975 507.813 872.13 506.671 874.441 506.35L877.589 505.909C877.589 504.125 876.867 503.232 875.425 503.232 874.16 503.232 873.019 503.663 872 504.524L872 502.802C873.032 502.146 874.222 501.817 875.568 501.817ZM861.98 497.859 869.444 497.859 869.444 499.418 863.702 499.418 863.702 504.504 869.014 504.504 869.014 506.052 863.702 506.052 863.702 512.564 861.98 512.564ZM843.98 497.859 845.702 497.859 845.702 512.564 843.98 512.564ZM882.754 497.019 884.436 497.019 884.436 512.564 882.754 512.564ZM853.722 496.793C854.235 496.793 854.642 496.855 854.943 496.978L854.943 498.495C854.614 498.311 854.242 498.218 853.825 498.218 852.649 498.218 852.061 498.96 852.061 500.443L852.061 502.064 854.522 502.064 854.522 503.499 852.061 503.499 852.061 512.564 850.39 512.564 850.39 503.499 848.595 503.499 848.595 502.064 850.39 502.064 850.39 500.361C850.39 499.261 850.708 498.391 851.343 497.752 851.979 497.113 852.772 496.793 853.722 496.793Z" fill="url(#fill3)" fill-rule="evenodd"/><text fill="#000000" fill-opacity="0" font-family="Arial,Arial_MSFontService,sans-serif" font-size="16.0166" x="843.98" y="510.808">If False</text></g></svg>